<svg id="Layer_1" data-name="Layer 1" xmlns="http://www.w3.org/2000/svg" viewBox="0 0 515.78 116.27"><defs><style>.cls-1{fill:#ed1c24;}.cls-2{fill:none;}.cls-3{fill:#fff;}.cls-4{fill:#231f20;}</style></defs><title>bt new logo</title><path class="cls-1" d="M237,32.71a.72.72,0,0,0,.72.72h1.36a.73.73,0,0,1,.73.72V79a.72.72,0,0,0,.72.72H253.3A.72.72,0,0,0,254,79V34.15a.73.73,0,0,1,.72-.72h6.1a.72.72,0,0,0,.72-.72V23.3a.73.73,0,0,0-.72-.72H237.7a.72.72,0,0,0-.72.72Z"/><path class="cls-2" d="M422.87,33.22v3.86c0,.58,0,1,0,1.45V33.22Z"/><path d="M53.47,32.71a.72.72,0,0,0,.72.72h1.37a.73.73,0,0,1,.72.72V79a.72.72,0,0,0,.72.72H69.8a.72.72,0,0,0,.72-.72V34.15a.72.72,0,0,1,.72-.72h6.09a.72.72,0,0,0,.72-.72V23.3a.72.72,0,0,0-.72-.72H54.19a.72.72,0,0,0-.72.72Z"/><path class="cls-1" d="M264.45,32.71a.72.72,0,0,0,.72.72h2a.72.72,0,0,1,.72.72V79a.72.72,0,0,0,.72.72h12.8a.72.72,0,0,0,.72-.72V34.15a.73.73,0,0,1,.72-.72h27.81a.72.72,0,0,0,.72-.72V23.3a.73.73,0,0,0-.72-.72H265.17a.72.72,0,0,0-.72.72Z"/><path class="cls-1" d="M314.64,32.71a.72.72,0,0,0,.72.72h1.37a.72.72,0,0,1,.72.72V79a.72.72,0,0,0,.72.72H331a.72.72,0,0,0,.72-.72V34.15a.72.72,0,0,1,.72-.72h6.09a.72.72,0,0,0,.72-.72V23.3a.73.73,0,0,0-.72-.72H315.36a.73.73,0,0,0-.72.72Z"/><path d="M182.85,32.42a.72.72,0,0,0,.72.72h1.37a.73.73,0,0,1,.72.73V78.74a.72.72,0,0,0,.72.72h12.79a.72.72,0,0,0,.72-.72V33.87a.73.73,0,0,1,.72-.73h6.1a.72.72,0,0,0,.72-.72V23a.72.72,0,0,0-.72-.72H183.57a.72.72,0,0,0-.72.72Z"/><path d="M0,32.65a.72.72,0,0,0,.72.72h31a3.92,3.92,0,0,1,.72,0s0,0,0,0v45.4a.73.73,0,0,0,.72.72H45.71a.72.72,0,0,0,.72-.72V34.09a.72.72,0,0,1,.72-.72h2a.73.73,0,0,0,.72-.72V23.3a.73.73,0,0,0-.72-.72H.72A.72.72,0,0,0,0,23.3Z"/><path d="M153.25,36.64a16.32,16.32,0,0,0-3.86,2.78,1,1,0,0,1-1.14.12l-7.62-3.36a.54.54,0,0,0-.7.54v2.54a1,1,0,0,0,.69.93l1.31.66a1.57,1.57,0,0,1,.58,1.13V63.66a.73.73,0,0,0,.72.72l9.65,0a.72.72,0,0,0,.72-.72V44.29a3.84,3.84,0,0,1,.3-1.38L155,41.46a1.66,1.66,0,0,0,.57-1.16V36.77a.56.56,0,0,0-.7-.57A15.82,15.82,0,0,0,153.25,36.64Z"/><path d="M120,32.5a.72.72,0,0,0,.72.72h40.46a.72.72,0,0,1,.72.72v1.75a.58.58,0,0,1-.71.59L159.44,36a.62.62,0,0,0-.71.63V40a1.14,1.14,0,0,0,.67,1l2,1.28a2,2,0,0,1,.52,1.21V78.89a.73.73,0,0,0,.72.73l12.71.14a.71.71,0,0,0,.72-.71V33.94a.72.72,0,0,1,.72-.72h1.95a.72.72,0,0,0,.72-.72V23a.72.72,0,0,0-.72-.72h-58A.72.72,0,0,0,120,23Z"/><path class="cls-1" d="M289.72,82.06q-1.34,0-6.85,2.91c-3.68,1.94-6.52,2.92-8.53,2.92-1.45,0-2.18-1.17-2.18-3.52V82.43a.72.72,0,0,0-.72-.72H271a.84.84,0,0,0-.81.71,33.4,33.4,0,0,0-.24,3.5,13.15,13.15,0,0,0,1.76,6.46c1.36,2.49,3,3.72,5.06,3.72q1.47,0,6.11-2.8c3.09-1.88,5.36-2.81,6.81-2.81a7.09,7.09,0,0,1,2,.37.48.48,0,0,0,.68-.49V84.32a1.86,1.86,0,0,0-.53-1.2A4,4,0,0,0,289.72,82.06Z"/><path class="cls-1" d="M295.64,75.15a1.18,1.18,0,0,0-.66,1V85a4.46,4.46,0,0,1,0,.65s0,.18,0,.58v1.51c0,.4,0,.73,0,.75a4.78,4.78,0,0,1,.05.76V92a.51.51,0,0,0,.69.51l8.17-2.4a1.06,1.06,0,0,0,.71-.92l.39-19.07c0-.4-.23-.51-.52-.24,0,0-.77.68-1.49,1.23A46.62,46.62,0,0,1,295.64,75.15Z"/><path class="cls-1" d="M307.31,45.18q-4.12-4.49-11.26-4.48c-.67,0-2.29.14-2.29.14a1.09,1.09,0,0,0-.89.76L289.68,55a.47.47,0,0,0,.55.62s1.93-.22,3.41-.22q12.47,0,12.47,7,0,6.74-9.15,11.06c-4,1.89-11.14,3.28-11.14,3.28a.93.93,0,0,0-.71.86v1.45a.65.65,0,0,0,.72.66,50,50,0,0,0,9-1.63,29.07,29.07,0,0,0,8-4.32,24.55,24.55,0,0,0,2-1.71,20,20,0,0,0,6.63-15.18Q311.44,49.65,307.31,45.18Z"/><path class="cls-1" d="M429.86,22.29H398.44a1.18,1.18,0,0,0-1.18,1.18V32a1.18,1.18,0,0,0,1.18,1.18h10.68a1.18,1.18,0,0,1,1.18,1.18V48.63a2.47,2.47,0,0,0,1,1.83s7.87,5.16,10.33,4.59l.32-.07a1.63,1.63,0,0,0,.94-1.49V39.71c0-.65,0-1.38,0-1.61V33.22h24.94A1.18,1.18,0,0,0,449,32V23.47a1.18,1.18,0,0,0-1.18-1.18H429.86Z"/><rect class="cls-3" x="422.88" y="33.21" width="3.2" height="0.01"/><path class="cls-1" d="M357.14,49.27c0-2.21-.21,2.47,0,0Z"/><path d="M75.55,57.47a.72.72,0,0,0,0,1L96.39,79.33a.72.72,0,0,0,1,0l8.67-8.68a.71.71,0,0,0,0-1L85.22,48.81a.71.71,0,0,0-1,0Z"/><path class="cls-1" d="M268.56.72a.72.72,0,0,0-.72-.72H240.59a.72.72,0,0,0-.72.72V17.91a.72.72,0,0,0,.72.72h12.27a.71.71,0,0,0,.7-.72l-.16-8.46a.7.7,0,0,1,.7-.72h13.74a.72.72,0,0,0,.72-.72Z"/><path class="cls-1" d="M374.36.72a.72.72,0,0,0-.72-.72H320.25a.72.72,0,0,0-.72.72V17.91a.73.73,0,0,0,.72.72h12.27a.71.71,0,0,0,.7-.72l-.16-8.46a.71.71,0,0,1,.71-.72h39.87a.72.72,0,0,0,.72-.72Z"/><path class="cls-1" d="M380.21.72a.72.72,0,0,1,.72-.72h41.54a.72.72,0,0,1,.72.72V17.91a.73.73,0,0,1-.72.72H410.2a.71.71,0,0,1-.71-.72l.16-8.46a.7.7,0,0,0-.7-.72h-28a.71.71,0,0,1-.72-.72Z"/><path class="cls-1" d="M274.56.72a.72.72,0,0,1,.72-.72h25.26a.72.72,0,0,1,.72.72V17.91a.73.73,0,0,1-.72.72H288.27a.71.71,0,0,1-.7-.72l.16-8.46a.7.7,0,0,0-.71-.72H275.28a.72.72,0,0,1-.72-.72Z"/><path class="cls-1" d="M392.78,32.71a.72.72,0,0,1-.72.72h-2a.73.73,0,0,0-.72.72V79a.72.72,0,0,1-.72.72h-12.8a.72.72,0,0,1-.72-.72V34.15a.72.72,0,0,0-.72-.72H343.72a.72.72,0,0,1-.72-.72V23.3a.73.73,0,0,1,.72-.72h48.34a.73.73,0,0,1,.72.72Z"/><path class="cls-1" d="M515.78,32.71a.72.72,0,0,1-.72.72h-10a.73.73,0,0,0-.72.72V79a.72.72,0,0,1-.72.72H490.87a.72.72,0,0,1-.72-.72V34.15a.73.73,0,0,0-.72-.72H454a.72.72,0,0,1-.72-.72V23.3a.72.72,0,0,1,.72-.72h61a.72.72,0,0,1,.72.72Z"/><path d="M29.57,35.86l.07,6.57s.64,2.71-1.36,3.28l-12.7,3.14s-1.22.36-.86,2.28c0,0-2.14,18.56,14.28,25.42a1.47,1.47,0,0,1-.15,2.57S2.58,80.54.73,44A1.68,1.68,0,0,1,2.3,42.14l26-7.28A1.38,1.38,0,0,1,29.57,35.86Z"/><path class="cls-1" d="M371.64,35.86l.08,6.57s.64,2.71-1.36,3.28l-12.71,3.14s-1.21.36-.85,2.28c0,0-2.15,18.56,14.27,25.42a1.46,1.46,0,0,1-.14,2.57S344.66,80.54,342.81,44a1.68,1.68,0,0,1,1.57-1.86l26-7.28A1.37,1.37,0,0,1,371.64,35.86Z"/><path class="cls-1" d="M485.75,51.56s1,1.07,1.57-.43c0,0,1.15-1.85-1.14-3.85,0,0-18.56-19.56-30.27-2.14,0,0-14.34,27.2,13.14,31.48l8.85-.07a1.75,1.75,0,0,0,1.57-1.29l-.07-1.64a1.56,1.56,0,0,0-1.64-1.21s-12.28,3-11.28-13C466.48,59.41,467.91,35.57,485.75,51.56Z"/><path d="M99.94,21.54"/><path class="cls-2" d="M99.94,42.65v0Z"/><path class="cls-2" d="M96.94,23.13A3.15,3.15,0,0,1,96.75,22v2.33Z"/><path d="M96.75,45.94V42.65a1,1,0,0,0-.68-.87h0C94.25,41.1,93.3,39.51,93.3,37V28.73a3.49,3.49,0,0,1,1.75-2.93,7.4,7.4,0,0,1,1.19-.65s0,0,0,0a.9.9,0,0,0,.47-.8V22a.58.58,0,0,0-.62-.62,24.5,24.5,0,0,0-8.39,2.26Q81,27,81,34.21q0,6.48,6.76,9.84a24.45,24.45,0,0,0,8.39,2.29C96.68,46.26,96.75,45.94,96.75,45.94Z"/><path class="cls-2" d="M98.51,23.13A3.15,3.15,0,0,0,98.7,22v2.33Z"/><path d="M98.7,45.94V42.65a1,1,0,0,1,.68-.87h0c1.83-.68,2.77-2.27,2.77-4.83V28.73a3.47,3.47,0,0,0-1.74-2.93,7.84,7.84,0,0,0-1.19-.65s0,0,0,0a.9.9,0,0,1-.47-.8V22a.58.58,0,0,1,.61-.62,24.5,24.5,0,0,1,8.4,2.26q6.77,3.38,6.76,10.59,0,6.48-6.76,9.84a24.45,24.45,0,0,1-8.39,2.29C98.77,46.26,98.7,45.94,98.7,45.94Z"/><path d="M137.15,78.86l-2.07-3.43a6,6,0,0,1-.53-2.24V45.41a13.19,13.19,0,0,1,.25-2.34A3.89,3.89,0,0,1,136,41.2l.24-.21a2.15,2.15,0,0,0,.5-1.52V37.18a1,1,0,0,0-1.17-1s-1.32.22-2.86.62c-6.17,1.81-8.87,9.82-8.87,9.82a8.58,8.58,0,0,0-.38,2.3V71a3.72,3.72,0,0,0,.76,2.08l5.89,6.07.3.3a2.52,2.52,0,0,0,1,.31h5.3C137.37,79.77,137.56,79.36,137.15,78.86Z"/><path class="cls-2" d="M426.07,52.55V52A2,2,0,0,0,426.07,52.55Z"/><path class="cls-2" d="M426.07,40.08v-.19A1,1,0,0,0,426.07,40.08Z"/><path class="cls-1" d="M437.75,34.38c-1.68,0-4.25.93-7.71,2.77-1.11.6-2.07,1.09-2.89,1.49h0c-.88.44-1,1-1.08,1.25V52.55c.07.33.3.6,1,.22,1.11-.58,2.37-1.29,3.77-2.16,4.82-3,8-4.43,9.64-4.43s2.69.84,3.63,2.52a9.05,9.05,0,0,1,1.21,4.54A12.76,12.76,0,0,1,440,63.93a19.44,19.44,0,0,1-11.8,3.62,23.39,23.39,0,0,1-13.91-4.23c-4.37-3.09-9.31-7.37-11.16-12a34.49,34.49,0,0,1-2.33-13.9h0a.53.53,0,0,0-.5-.62l-.73,0a.57.57,0,0,0-.45.59c.17,28.48,11.4,42.73,26.88,42.73q12.3,0,17.59-4.89t5.29-17Q448.84,34.39,437.75,34.38Z"/><path class="cls-4" d="M313.77,107.64c-.59-1.11-1.25-1.67-2-1.67a2.17,2.17,0,0,0-1.43.84c-.07.07-.44.51-1.11,1.33l-1.93,2.35a1.4,1.4,0,0,1-1.08.64,1.47,1.47,0,0,1-.95-.53,12.56,12.56,0,0,1-2.1-2.78l.82-.64c.41,1.1.81,1.64,1.21,1.64a1.09,1.09,0,0,0,.74-.48c1-1.24,1.72-2,2.08-2.42a5,5,0,0,0,.13-1.1,2.32,2.32,0,0,0-.93-1.85,3.1,3.1,0,0,0-2-.77,5.66,5.66,0,0,1-1.7-.18,1.21,1.21,0,0,1-.9-1.23h-.51l-1.05-1.1h15.14l1.06,1.1H315v15.48l-1.28-1.54Zm-6.85-6.85v0a3.66,3.66,0,0,1,2,3.36,2.25,2.25,0,0,1-.13.9l.08.05a3.12,3.12,0,0,1,2.11-1.28c.85,0,1.77.87,2.74,2.62h.16v-5.7Z"/><path class="cls-4" d="M321.43,99.69l1.05,1.1h-2.57l.26,15.48-1.52-1.54.11-13.94h-2.57l-1.08-1.1h3.7a3.81,3.81,0,0,1-1.52-2.62A3.87,3.87,0,0,1,319,94.24a6.88,6.88,0,0,1,4.44-1.56q4.55,0,8.81,4.57V98q-3.86-3.76-8-3.77a6.54,6.54,0,0,0-3.49,1,3.46,3.46,0,0,0-1.95,2.9,2,2,0,0,0,.74,1.55Z"/><path class="cls-4" d="M327.56,92a2.42,2.42,0,0,0-1.72,2.21A5.79,5.79,0,0,0,327,97.12c.17.26.79,1.11,1.87,2.57h4.75l1.05,1.1h-5.06q3.31,4.32,3.32,7.9a6.28,6.28,0,0,1-1.36,4.08,4.64,4.64,0,0,1-3.8,1.81,4.45,4.45,0,0,1-3.11-1.21,4,4,0,0,1-1.31-3,4.1,4.1,0,0,1,.15-1.19,7,7,0,0,0,3.59-2.52,6.33,6.33,0,0,0,1.6-4,4,4,0,0,0-.44-1.85h-6.44l-1.1-1.1h7q-2.88-4.11-2.88-6.09a2.4,2.4,0,0,1,1.44-2.44Zm4,15.79a8.23,8.23,0,0,0-1.72-5.28l-.08,0a5.61,5.61,0,0,1,.08.82,7.47,7.47,0,0,1-1.36,4.25,8.21,8.21,0,0,1-3.41,2.94,2,2,0,0,0-.16.92,1.82,1.82,0,0,0,.72,1.5,2.53,2.53,0,0,0,1.64.58,3.67,3.67,0,0,0,3.21-2A6.91,6.91,0,0,0,331.59,107.82Z"/><path class="cls-4" d="M349.56,99.69l1.05,1.1h-6.75v1.11a5,5,0,0,1,3.84,1.81,5.9,5.9,0,0,1,1.63,4.05,3.52,3.52,0,0,1-.56,2,2,2,0,0,1-1.7,1,1.63,1.63,0,0,1-1.18-.51,1.65,1.65,0,0,1-.51-1.19,1.59,1.59,0,0,1,.4-1.06,1.28,1.28,0,0,1,1-.48,1.61,1.61,0,0,1,1.58,1.06,1.3,1.3,0,0,0,.23-.77,3.51,3.51,0,0,0-1.56-2.9,5.06,5.06,0,0,0-3.17-1.13v12.06l-.51-.49a7.62,7.62,0,0,0-2-3.93,8.26,8.26,0,0,0-5.47-2.91l-1.69-2q5.43-4,8.52-4.43v-1.18h-8.8l-1.11-1.1Zm-6.88,4.1a17.82,17.82,0,0,0-5.9,3,12.63,12.63,0,0,1,5.85,5.1h.05Z"/><path class="cls-4" d="M368.48,107.64c-.6-1.11-1.25-1.67-2-1.67a2.15,2.15,0,0,0-1.43.84c-.07.07-.44.51-1.11,1.33L362,110.49a1.4,1.4,0,0,1-1.08.64,1.47,1.47,0,0,1-.95-.53,12.6,12.6,0,0,1-2.11-2.78l.83-.64c.41,1.1.81,1.64,1.2,1.64.23,0,.47-.16.75-.48,1-1.24,1.72-2,2.08-2.42a5,5,0,0,0,.12-1.1A2.31,2.31,0,0,0,362,103a3.12,3.12,0,0,0-2-.77,5.63,5.63,0,0,1-1.69-.18,1.21,1.21,0,0,1-.9-1.23h-.51l-1.06-1.1h15.15l1.05,1.1h-2.28v15.48l-1.29-1.54Zm-6.85-6.85v0a3.66,3.66,0,0,1,2,3.36,2.25,2.25,0,0,1-.13.9l.08.05a3.13,3.13,0,0,1,2.1-1.28c.86,0,1.78.87,2.75,2.62h.15v-5.7Z"/><path class="cls-4" d="M382.6,100.79v15l-.51-.49c-.55-2.78-1.83-4.54-3.85-5.26a2.81,2.81,0,0,1-2.62,1.7,2.46,2.46,0,0,1-1.86-.74,2.58,2.58,0,0,1-.71-1.88,2.19,2.19,0,0,1,.77-1.74,2.83,2.83,0,0,1,1.88-.65,2.32,2.32,0,0,1,1.23.31.91.91,0,0,0,.38-.8A2.9,2.9,0,0,0,376,104a7.24,7.24,0,0,0-2.1-1.09,7.73,7.73,0,0,1-1.82-.74,1.56,1.56,0,0,1-.67-1.37H371l-1.13-1.1h14l1.08,1.1Zm-1.18,0h-7.37a.49.49,0,0,0,.21.36,29.86,29.86,0,0,1,2.95,2.86,5.89,5.89,0,0,1,1.67,3.62,1.37,1.37,0,0,1-.18.72,10.2,10.2,0,0,1,2.72,3.4Z"/><path class="cls-4" d="M384,100.79l-1.1-1.1h9.44l1.11,1.12c-1,0-2.2.67-3.55,2a9.43,9.43,0,0,0-2.84,6.9,7.84,7.84,0,0,0,.64,3.19c.56,1.26,1.34,1.9,2.34,1.9a1.09,1.09,0,0,0,.77-.36,1.33,1.33,0,0,1-.62-1.18,1.4,1.4,0,0,1,.49-1.07,1.57,1.57,0,0,1,1.1-.45,1.53,1.53,0,0,1,1.22.53,1.91,1.91,0,0,1,.45,1.29,1.94,1.94,0,0,1-.76,1.61,2.78,2.78,0,0,1-1.78.6,4.45,4.45,0,0,1-3.93-2.34,8.47,8.47,0,0,1-1.26-4.6,11,11,0,0,1,.95-4.53,7.85,7.85,0,0,1,2.95-3.47v0Z"/><path class="cls-4" d="M403.11,115.78l-.51-.49a7,7,0,0,0-2.9-3.92,8.19,8.19,0,0,0-4.75-2l-1.49-1.8q3-2.59,4.62-3.82a6.1,6.1,0,0,0-2.23-1.48c-.81-.17-1.6-.36-2.38-.56s-1.17-.51-1.19-.94h-.23l-1.11-1.1h13.48l1,1.1h-2.34Zm-6.75-15,3.51,4q-1.64,1.26-3.74,3.06,2.83.74,5.8,4.67V100.79Zm3.31,13.14a1.84,1.84,0,0,1-.42,1.21,1.36,1.36,0,0,1-1.09.51,1.66,1.66,0,0,1-1.16-.45,1.46,1.46,0,0,1-.49-1.11,1.72,1.72,0,0,1,.45-1.18,1.42,1.42,0,0,1,1.12-.52,1.58,1.58,0,0,1,1.12.45A1.48,1.48,0,0,1,399.67,113.93Z"/><path class="cls-4" d="M423.44,107.64c-.59-1.11-1.25-1.67-2-1.67a2.17,2.17,0,0,0-1.43.84c-.07.07-.44.51-1.11,1.33L417,110.49a1.4,1.4,0,0,1-1.08.64,1.47,1.47,0,0,1-.95-.53,12.56,12.56,0,0,1-2.1-2.78l.82-.64c.41,1.1.81,1.64,1.21,1.64a1.09,1.09,0,0,0,.74-.48c1-1.24,1.72-2,2.08-2.42a5,5,0,0,0,.13-1.1,2.32,2.32,0,0,0-.93-1.85,3.1,3.1,0,0,0-2-.77,5.66,5.66,0,0,1-1.7-.18,1.21,1.21,0,0,1-.9-1.23h-.51l-1.05-1.1h15.14l1.06,1.1h-2.29v15.48l-1.28-1.54Zm-6.85-6.85v0a3.66,3.66,0,0,1,2,3.36,2.25,2.25,0,0,1-.13.9l.08.05a3.12,3.12,0,0,1,2.11-1.28c.85,0,1.77.87,2.74,2.62h.16v-5.7Z"/><path class="cls-4" d="M431.1,99.69l1,1.1h-2.57l.26,15.48-1.52-1.54.11-13.94h-2.57l-1.08-1.1h3.7A3.81,3.81,0,0,1,427,97.07a3.87,3.87,0,0,1,1.72-2.83,6.88,6.88,0,0,1,4.44-1.56q4.54,0,8.81,4.57V98q-3.85-3.76-8-3.77a6.54,6.54,0,0,0-3.49,1,3.46,3.46,0,0,0-2,2.9,2,2,0,0,0,.74,1.55Z"/><path class="cls-4" d="M437.23,92a2.42,2.42,0,0,0-1.72,2.21,5.79,5.79,0,0,0,1.16,2.88c.17.26.79,1.11,1.87,2.57h4.75l1,1.1h-5c2.2,2.88,3.31,5.51,3.31,7.9a6.28,6.28,0,0,1-1.36,4.08,4.64,4.64,0,0,1-3.8,1.81,4.45,4.45,0,0,1-3.11-1.21,4,4,0,0,1-1.31-3,3.77,3.77,0,0,1,.16-1.19,7,7,0,0,0,3.58-2.52,6.33,6.33,0,0,0,1.6-4,4,4,0,0,0-.44-1.85h-6.44l-1.1-1.1h7q-2.88-4.11-2.88-6.09a2.4,2.4,0,0,1,1.44-2.44Zm4,15.79a8.23,8.23,0,0,0-1.72-5.28l-.08,0a4.49,4.49,0,0,1,.08.82,7.47,7.47,0,0,1-1.36,4.25,8.15,8.15,0,0,1-3.41,2.94,2,2,0,0,0-.16.92,1.82,1.82,0,0,0,.72,1.5,2.53,2.53,0,0,0,1.64.58,3.67,3.67,0,0,0,3.21-2A6.91,6.91,0,0,0,441.26,107.82Z"/><path class="cls-4" d="M459.23,99.69l1,1.1h-6.75v1.11a5,5,0,0,1,3.84,1.81,5.9,5.9,0,0,1,1.63,4.05,3.52,3.52,0,0,1-.56,2,2,2,0,0,1-1.7,1,1.63,1.63,0,0,1-1.18-.51,1.65,1.65,0,0,1-.51-1.19,1.59,1.59,0,0,1,.4-1.06,1.28,1.28,0,0,1,1-.48,1.61,1.61,0,0,1,1.58,1.06,1.3,1.3,0,0,0,.23-.77,3.51,3.51,0,0,0-1.56-2.9,5.06,5.06,0,0,0-3.17-1.13v12.06l-.51-.49a7.62,7.62,0,0,0-2-3.93,8.26,8.26,0,0,0-5.47-2.91l-1.69-2q5.43-4,8.52-4.43v-1.18h-8.8l-1.11-1.1Zm-6.88,4.1a17.82,17.82,0,0,0-5.9,3,12.63,12.63,0,0,1,5.85,5.1h.05Z"/><path class="cls-4" d="M468.34,106.13a5.67,5.67,0,0,0,1,.1,7.69,7.69,0,0,0,3.36-.82c1.41-.67,2.11-1.49,2.11-2.46a1.47,1.47,0,0,0-.24-.76.7.7,0,0,0-.58-.4,1,1,0,0,0-.64.36,5.83,5.83,0,0,1-4,1.9,2.48,2.48,0,0,1-1.54-.51,1.66,1.66,0,0,1-.67-1.36c0-1,.47-1.47,1.39-1.47a1.19,1.19,0,0,1,1.16.77c.13.29.29.44.46.44.56,0,1.59-.75,3.08-2.23q2.72,1.74,2.72,4.1a3.15,3.15,0,0,1-1.1,2.36,4.59,4.59,0,0,1-2.39,1.21v.08a11.11,11.11,0,0,1,5.08,4.41V97.09l.69.7a2,2,0,0,0,.42,1.3,1.45,1.45,0,0,0,1.23.6l1.08,1.12H479.1c0-.15-.07-.23-.1-.23q-.31,0-.31,6.76,0,3.43.05,8.44l-.51-.49a7.53,7.53,0,0,0-2-3.92,7.73,7.73,0,0,0-5.87-2.65Z"/><path class="cls-4" d="M493.58,100.81h-2.46v14.33h-1.9a10.34,10.34,0,0,0-7.47-7.93v-1.62l7.59-4.06v-.72h-9.06l-.77-1.1h13.3ZM489.34,111V103.4l-5.59,3A12.69,12.69,0,0,1,489.34,111Z"/><path class="cls-4" d="M503.93,115.78l-.52-.49a8.51,8.51,0,0,0-2.31-3.93,8.77,8.77,0,0,0-5.77-2.86l-1.67-1.92c3.93-2.9,6.95-4.5,9-4.79v-1h-9.34l-1.1-1.1h12.88l1.06,1.1h-2.26Zm-7.76-8.8a12.39,12.39,0,0,1,6.47,5.11h.05v-8.4a10.61,10.61,0,0,0-3.51,1.44A24.38,24.38,0,0,0,496.17,107Zm3.93,5.93a1.83,1.83,0,0,1-.42,1.2,1.34,1.34,0,0,1-1.09.52,1.66,1.66,0,0,1-1.16-.45,1.48,1.48,0,0,1-.49-1.12,1.74,1.74,0,0,1,.45-1.18,1.43,1.43,0,0,1,1.12-.51,1.58,1.58,0,0,1,1.12.45A1.46,1.46,0,0,1,500.1,112.91Z"/></svg>